<svg width="239" height="154" viewBox="0 0 239 154" fill="none" xmlns="http://www.w3.org/2000/svg">
<path d="M26.3758 71.2124L7 59.8889L80.9804 50.8301L126.778 70.9608L104.634 74.1242M26.3758 71.2124L45.7516 82.536L86.0131 76.7843M26.3758 71.2124V106.693M26.3758 106.693C39.2092 119.442 72.8275 137.292 104.634 106.693M26.3758 106.693C39.0414 119.61 72.4248 137.694 104.634 106.693M104.634 106.693V74.1242M104.634 74.1242L86.0131 76.7843M61.8562 63.915L86.0131 76.7843M86.0131 76.7843V84.549M86.0131 84.549L80.9804 92.0981C82.9935 94.6144 88.1268 98.1373 92.5556 92.0981L86.0131 84.549Z" stroke="black" stroke-width="4"/>
<line x1="72.4088" y1="29.3318" x2="70.3957" y2="50.469" stroke="black" stroke-width="3"/>
<line x1="72.3124" y1="27.8217" x2="112.574" y2="9.70401" stroke="black" stroke-width="3"/>
<line x1="120.235" y1="9.57193" x2="160.497" y2="9.57193" stroke="black" stroke-width="3"/>
<line x1="75.4056" y1="29.7764" x2="114.749" y2="42.596" stroke="black" stroke-width="3"/>
<line x1="126.315" y1="42.1337" x2="164.563" y2="9.92455" stroke="black" stroke-width="3"/>
<line x1="105.645" y1="87.1607" x2="139.867" y2="75.0823" stroke="black" stroke-width="3"/>
<line x1="110.116" y1="62.3511" x2="120.181" y2="52.2858" stroke="black" stroke-width="3"/>
<line x1="125.455" y1="49.4177" x2="141.559" y2="70.555" stroke="black" stroke-width="3"/>
<line x1="104.171" y1="106.2" x2="141.413" y2="107.206" stroke="black" stroke-width="3"/>
<line x1="144.719" y1="110.032" x2="161.831" y2="143.248" stroke="black" stroke-width="3"/>
<line x1="148.73" y1="111.403" x2="193.018" y2="88.2524" stroke="black" stroke-width="3"/>
<line x1="141.865" y1="76.4311" x2="143.143" y2="105.617" stroke="black" stroke-width="3"/>
<line x1="144.314" y1="72.4403" x2="166.458" y2="49.29" stroke="black" stroke-width="3"/>
<line x1="145.564" y1="75.0059" x2="199.917" y2="81.0451" stroke="black" stroke-width="3"/>
<line x1="175.749" y1="49.092" x2="200.647" y2="72.5272" stroke="black" stroke-width="3"/>
<line x1="168.329" y1="8.78788" x2="207.584" y2="32.9447" stroke="black" stroke-width="3"/>
<line x1="171.151" y1="44.8598" x2="209.4" y2="33.7879" stroke="black" stroke-width="3"/>
<line x1="208.178" y1="30.6159" x2="225.289" y2="70.8774" stroke="black" stroke-width="3"/>
<line x1="114.645" y1="13.7277" x2="120.684" y2="37.8846" stroke="black" stroke-width="3"/>
<line x1="166.937" y1="13.9723" x2="171.103" y2="37.8522" stroke="black" stroke-width="3"/>
<line x1="145.67" y1="113.27" x2="183.919" y2="120.316" stroke="black" stroke-width="3"/>
<line x1="166.377" y1="143.997" x2="183.488" y2="122.86" stroke="black" stroke-width="3"/>
<line x1="188.59" y1="119.761" x2="202.681" y2="104.663" stroke="black" stroke-width="3"/>
<path d="M184.669 148.968C184.669 149.797 185.341 150.468 186.17 150.467C186.998 150.467 187.669 149.795 187.669 148.966L184.669 148.968ZM184.657 129.844L184.669 148.968L187.669 148.966L187.657 129.842L184.657 129.844Z" fill="black"/>
<circle cx="72.4247" cy="28.6863" r="8.05556" fill="black" stroke="black"/>
<circle cx="112.686" cy="9.56212" r="8.05556" fill="black" stroke="black"/>
<circle cx="112.686" cy="9.56207" r="4.02941" fill="#F7F8FA" stroke="black"/>
<circle cx="167.039" cy="8.55556" r="8.05556" fill="black" stroke="black"/>
<circle cx="167.04" cy="8.55554" r="4.02941" fill="#F7F8FA" stroke="black"/>
<circle cx="206.294" cy="32.7124" r="8.05556" fill="black" stroke="black"/>
<circle cx="206.294" cy="32.7124" r="4.02941" fill="#F7F8FA" stroke="black"/>
<circle cx="171.066" cy="45.7974" r="8.05556" fill="black" stroke="black"/>
<circle cx="171.065" cy="45.7974" r="4.02941" fill="#F7F8FA" stroke="black"/>
<circle cx="120.739" cy="44.7908" r="8.05556" fill="black" stroke="black"/>
<circle cx="120.738" cy="44.7909" r="4.02941" fill="#F7F8FA" stroke="black"/>
<circle cx="141.876" cy="73.9804" r="8.05556" fill="black" stroke="black"/>
<circle cx="141.876" cy="73.9804" r="4.02941" fill="#F7F8FA" stroke="black"/>
<circle cx="144.896" cy="110.216" r="8.05556" fill="black" stroke="black"/>
<circle cx="144.895" cy="110.216" r="4.02941" fill="#F7F8FA" stroke="black"/>
<circle cx="164.02" cy="145.444" r="8.05556" fill="black" stroke="black"/>
<circle cx="164.019" cy="145.444" r="4.02941" fill="#F7F8FA" stroke="black"/>
<circle cx="185.157" cy="124.307" r="8.05556" fill="black" stroke="black"/>
<circle cx="185.157" cy="124.307" r="4.02941" fill="#F7F8FA" stroke="black"/>
<circle cx="72.4244" cy="28.6863" r="4.02941" fill="#F7F8FA" stroke="black"/>
<g clip-path="url(#clip0_1_2672)">
<path d="M214.85 93.6078C218.185 93.6078 220.889 90.904 220.889 87.5686C220.889 84.2333 218.185 81.5294 214.85 81.5294C211.514 81.5294 208.81 84.2333 208.81 87.5686C208.81 90.904 211.514 93.6078 214.85 93.6078Z" stroke="black" stroke-width="4" stroke-linecap="round" stroke-linejoin="round"/>
<path d="M229.746 93.6078C229.478 94.215 229.398 94.8885 229.517 95.5416C229.635 96.1946 229.947 96.7972 230.411 97.2716L230.531 97.3924C230.906 97.7663 231.203 98.2104 231.405 98.6991C231.608 99.1879 231.712 99.7118 231.712 100.241C231.712 100.77 231.608 101.294 231.405 101.783C231.203 102.271 230.906 102.715 230.531 103.089C230.158 103.464 229.713 103.761 229.225 103.963C228.736 104.166 228.212 104.27 227.683 104.27C227.154 104.27 226.63 104.166 226.141 103.963C225.652 103.761 225.208 103.464 224.834 103.089L224.714 102.969C224.239 102.505 223.637 102.193 222.984 102.075C222.331 101.956 221.657 102.036 221.05 102.304C220.454 102.559 219.947 102.983 219.589 103.523C219.231 104.063 219.039 104.696 219.037 105.344V105.686C219.037 106.754 218.613 107.778 217.858 108.533C217.103 109.288 216.078 109.712 215.011 109.712C213.943 109.712 212.919 109.288 212.164 108.533C211.409 107.778 210.985 106.754 210.985 105.686V105.505C210.969 104.839 210.753 104.193 210.366 103.65C209.978 103.108 209.436 102.695 208.81 102.465C208.203 102.197 207.53 102.117 206.877 102.236C206.224 102.354 205.621 102.666 205.147 103.13L205.026 103.25C204.652 103.625 204.208 103.922 203.719 104.124C203.23 104.327 202.706 104.431 202.177 104.431C201.648 104.431 201.124 104.327 200.636 104.124C200.147 103.922 199.703 103.625 199.329 103.25C198.954 102.877 198.658 102.433 198.455 101.944C198.252 101.455 198.148 100.931 198.148 100.402C198.148 99.8729 198.252 99.349 198.455 98.8602C198.658 98.3714 198.954 97.9274 199.329 97.5535L199.45 97.4327C199.914 96.9582 200.225 96.3557 200.343 95.7026C200.462 95.0496 200.382 94.3761 200.114 93.7689C199.859 93.1735 199.435 92.6657 198.895 92.308C198.355 91.9503 197.722 91.7584 197.074 91.7558H196.732C195.664 91.7558 194.64 91.3316 193.885 90.5766C193.13 89.8215 192.706 88.7975 192.706 87.7297C192.706 86.6619 193.13 85.6378 193.885 84.8828C194.64 84.1277 195.664 83.7035 196.732 83.7035H196.913C197.579 83.6879 198.226 83.4723 198.768 83.0845C199.31 82.6968 199.723 82.1549 199.953 81.5294C200.221 80.9222 200.301 80.2487 200.182 79.5957C200.064 78.9426 199.753 78.3401 199.289 77.8656L199.168 77.7448C198.793 77.3709 198.496 76.9269 198.294 76.4381C198.091 75.9493 197.987 75.4254 197.987 74.8963C197.987 74.3672 198.091 73.8433 198.294 73.3546C198.496 72.8658 198.793 72.4218 199.168 72.0478C199.542 71.6735 199.986 71.3765 200.474 71.1739C200.963 70.9713 201.487 70.867 202.016 70.867C202.545 70.867 203.069 70.9713 203.558 71.1739C204.047 71.3765 204.491 71.6735 204.865 72.0478L204.986 72.1686C205.46 72.6327 206.063 72.944 206.716 73.0624C207.369 73.1808 208.042 73.1009 208.649 72.8329H208.81C209.406 72.5778 209.914 72.154 210.271 71.614C210.629 71.0739 210.821 70.441 210.823 69.7932V69.451C210.823 68.3832 211.248 67.3591 212.003 66.6041C212.758 65.849 213.782 65.4248 214.85 65.4248C215.917 65.4248 216.941 65.849 217.697 66.6041C218.452 67.3591 218.876 68.3832 218.876 69.451V69.6322C218.878 70.2799 219.07 70.9128 219.428 71.4529C219.786 71.993 220.293 72.4167 220.889 72.6719C221.496 72.9399 222.17 73.0198 222.823 72.9014C223.476 72.783 224.078 72.4717 224.553 72.0076L224.673 71.8868C225.047 71.5125 225.491 71.2155 225.98 71.0129C226.469 70.8103 226.993 70.706 227.522 70.706C228.051 70.706 228.575 70.8103 229.064 71.0129C229.552 71.2155 229.996 71.5125 230.37 71.8868C230.745 72.2607 231.042 72.7048 231.244 73.1935C231.447 73.6823 231.551 74.2062 231.551 74.7353C231.551 75.2644 231.447 75.7883 231.244 76.2771C231.042 76.7658 230.745 77.2099 230.37 77.5838L230.25 77.7046C229.786 78.179 229.474 78.7816 229.356 79.4346C229.237 80.0877 229.317 80.7612 229.585 81.3684V81.5294C229.84 82.1248 230.264 82.6326 230.804 82.9903C231.344 83.348 231.977 83.5399 232.625 83.5425H232.967C234.035 83.5425 235.059 83.9667 235.814 84.7217C236.569 85.4768 236.993 86.5008 236.993 87.5686C236.993 88.6364 236.569 89.6605 235.814 90.4155C235.059 91.1706 234.035 91.5948 232.967 91.5948H232.786C232.138 91.5974 231.505 91.7893 230.965 92.147C230.425 92.5046 230.002 93.0124 229.746 93.6078Z" stroke="black" stroke-width="4" stroke-linecap="round" stroke-linejoin="round"/>
</g>
<path d="M61.8146 61.6217C60.8422 61.0977 59.6292 61.4611 59.1051 62.4334C58.5811 63.4058 58.9445 64.6189 59.9169 65.1429L61.8146 61.6217ZM59.9169 65.1429L83.3223 77.757L85.22 74.2358L61.8146 61.6217L59.9169 65.1429Z" fill="black"/>
<defs>
<clipPath id="clip0_1_2672">
<rect width="48.3137" height="48.3137" fill="white" transform="translate(190.693 63.4118)"/>
</clipPath>
</defs>
</svg>
