<svg width="20" height="16" viewBox="0 0 20 16" fill="none" xmlns="http://www.w3.org/2000/svg">
<path d="M16.4782 15.2537H3.21289C1.93477 15.2537 0.889038 14.1524 0.889038 12.7835V3.31404C0.889038 1.95538 1.92509 0.84375 3.21289 0.84375H16.4782C17.7563 0.84375 18.8021 1.94509 18.8021 3.31404V12.7835C18.8021 14.1524 17.766 15.2537 16.4782 15.2537Z" fill="white" fill-opacity="0.67" stroke="#0050D0" stroke-width="1.5" stroke-linecap="round" stroke-linejoin="round"/>
<path d="M17.8047 1.63599L11.1526 8.65572C10.4071 9.44827 9.28386 9.44827 8.52861 8.65572L1.87659 1.63599" fill="white" fill-opacity="0.67"/>
<path d="M17.8047 1.63599L11.1526 8.65572C10.4071 9.44827 9.28386 9.44827 8.52861 8.65572L1.87659 1.63599" stroke="#0050D0" stroke-width="1.5" stroke-linecap="round" stroke-linejoin="round"/>
<path d="M11.908 7.96606L17.8047 14.0491" stroke="#0050D0" stroke-width="1.5" stroke-linecap="round" stroke-linejoin="round"/>
<path d="M1.88635 14.0496L7.85091 8.04883" stroke="#0050D0" stroke-width="1.5" stroke-linecap="round" stroke-linejoin="round"/>
</svg>
