<svg width="20" height="16" viewBox="0 0 20 16" fill="none" xmlns="http://www.w3.org/2000/svg">
<path d="M16.4781 15.2537H3.21277C1.93465 15.2537 0.888916 14.1524 0.888916 12.7835V3.31404C0.888916 1.95538 1.92497 0.84375 3.21277 0.84375H16.4781C17.7562 0.84375 18.8019 1.94509 18.8019 3.31404V12.7835C18.8019 14.1524 17.7659 15.2537 16.4781 15.2537Z" fill="white" fill-opacity="0.67" stroke="#ACADB9" stroke-width="1.5" stroke-linecap="round" stroke-linejoin="round"/>
<path d="M17.8046 1.63599L11.1526 8.65572C10.407 9.44827 9.2838 9.44827 8.52855 8.65572L1.87653 1.63599" fill="white" fill-opacity="0.67"/>
<path d="M17.8046 1.63599L11.1526 8.65572C10.407 9.44827 9.2838 9.44827 8.52855 8.65572L1.87653 1.63599" stroke="#ACADB9" stroke-width="1.5" stroke-linecap="round" stroke-linejoin="round"/>
<path d="M11.9079 7.96606L17.8047 14.0491" stroke="#ACADB9" stroke-width="1.5" stroke-linecap="round" stroke-linejoin="round"/>
<path d="M1.88617 14.0496L7.85072 8.04883" stroke="#ACADB9" stroke-width="1.5" stroke-linecap="round" stroke-linejoin="round"/>
</svg>
