<svg width="19" height="23" viewBox="0 0 19 23" fill="none" xmlns="http://www.w3.org/2000/svg">
<path d="M0.80603 18.0741V13.8205C0.80603 11.9655 2.26769 10.4517 4.0818 10.4517H14.6244C16.4281 10.4517 17.9001 11.9548 17.9001 13.8205V18.0741C17.9001 19.9291 16.4385 21.443 14.6244 21.443H4.0818C2.26769 21.443 0.80603 19.9398 0.80603 18.0741Z" fill="white" fill-opacity="0.67" stroke="#0050D0" stroke-width="1.5625" stroke-linecap="round" stroke-linejoin="round"/>
<path d="M4.00928 10.4626V7.21102C4.00928 4.18335 6.4039 1.7207 9.34794 1.7207C12.292 1.7207 14.6866 4.18335 14.6866 7.21102V10.4626H4.00928Z" stroke="#0050D0" stroke-width="1.5625" stroke-linecap="round" stroke-linejoin="round"/>
<path d="M9.3479 18.1492V15.3987" stroke="#0050D0" stroke-width="1.5625" stroke-linecap="round" stroke-linejoin="round"/>
<path d="M9.34788 15.953C9.93758 15.953 10.4156 15.4613 10.4156 14.8549C10.4156 14.2485 9.93758 13.7568 9.34788 13.7568C8.75819 13.7568 8.28015 14.2485 8.28015 14.8549C8.28015 15.4613 8.75819 15.953 9.34788 15.953Z" fill="white" fill-opacity="0.67" stroke="#0050D0" stroke-width="1.5625" stroke-linecap="round" stroke-linejoin="round"/>
</svg>
