<svg width="19" height="23" viewBox="0 0 19 23" fill="none" xmlns="http://www.w3.org/2000/svg">
<path d="M0.805969 18.0741V13.8205C0.805969 11.9655 2.26763 10.4517 4.08174 10.4517H14.6243C16.428 10.4517 17.9001 11.9548 17.9001 13.8205V18.0741C17.9001 19.9291 16.4384 21.443 14.6243 21.443H4.08174C2.26763 21.443 0.805969 19.9398 0.805969 18.0741Z" fill="white" fill-opacity="0.67" stroke="#ACADB9" stroke-width="1.5625" stroke-linecap="round" stroke-linejoin="round"/>
<path d="M4.00916 10.4626V7.21102C4.00916 4.18335 6.40377 1.7207 9.34782 1.7207C12.2919 1.7207 14.6865 4.18335 14.6865 7.21102V10.4626H4.00916Z" stroke="#ACADB9" stroke-width="1.5625" stroke-linecap="round" stroke-linejoin="round"/>
<path d="M9.34784 18.1492V15.3987" stroke="#ACADB9" stroke-width="1.5625" stroke-linecap="round" stroke-linejoin="round"/>
<path d="M9.34782 15.953C9.93752 15.953 10.4156 15.4613 10.4156 14.8549C10.4156 14.2485 9.93752 13.7568 9.34782 13.7568C8.75813 13.7568 8.28009 14.2485 8.28009 14.8549C8.28009 15.4613 8.75813 15.953 9.34782 15.953Z" fill="white" fill-opacity="0.67" stroke="#ACADB9" stroke-width="1.5625" stroke-linecap="round" stroke-linejoin="round"/>
</svg>
