<svg width="19" height="22" viewBox="0 0 19 22" fill="none" xmlns="http://www.w3.org/2000/svg">
<path d="M9.52695 9.77771C11.6741 9.77771 13.4147 7.98764 13.4147 5.77948C13.4147 3.57132 11.6741 1.78125 9.52695 1.78125C7.37979 1.78125 5.63916 3.57132 5.63916 5.77948C5.63916 7.98764 7.37979 9.77771 9.52695 9.77771Z" fill="white" fill-opacity="0.67" stroke="#ACADB9" stroke-width="2" stroke-linecap="round" stroke-linejoin="round"/>
<path d="M1.67175 20.8857V18.6068C1.67175 15.9459 3.76825 13.8035 6.34242 13.8035H13.3351C15.9226 13.8035 18.0058 15.9595 18.0058 18.6068V20.8857" fill="white" fill-opacity="0.67"/>
<path d="M1.67175 20.8857V18.6068C1.67175 15.9459 3.76825 13.8035 6.34242 13.8035H13.3351C15.9226 13.8035 18.0058 15.9595 18.0058 18.6068V20.8857" stroke="#ACADB9" stroke-width="2" stroke-linecap="round" stroke-linejoin="round"/>
</svg>
