<svg width="19" height="22" viewBox="0 0 19 22" fill="none" xmlns="http://www.w3.org/2000/svg">
<path d="M9.52708 9.80115C11.6742 9.80115 13.4149 8.01108 13.4149 5.80292C13.4149 3.59476 11.6742 1.80469 9.52708 1.80469C7.37991 1.80469 5.63928 3.59476 5.63928 5.80292C5.63928 8.01108 7.37991 9.80115 9.52708 9.80115Z" fill="white" fill-opacity="0.67" stroke="#0050D0" stroke-width="2" stroke-linecap="round" stroke-linejoin="round"/>
<path d="M1.67188 20.9091V18.6302C1.67188 15.9693 3.76837 13.8269 6.34254 13.8269H13.3353C15.9227 13.8269 18.0059 15.983 18.0059 18.6302V20.9091" fill="white" fill-opacity="0.67"/>
<path d="M1.67188 20.9091V18.6302C1.67188 15.9693 3.76837 13.8269 6.34254 13.8269H13.3353C15.9227 13.8269 18.0059 15.983 18.0059 18.6302V20.9091" stroke="#0050D0" stroke-width="2" stroke-linecap="round" stroke-linejoin="round"/>
</svg>
